<svg width="52" height="30" viewBox="0 0 52 30" fill="none" xmlns="http://www.w3.org/2000/svg">
<path d="M40.6204 18.3867V18.4564C40.4713 18.2807 40.3192 18.1065 40.1685 17.9323C40.1053 17.8596 40.042 17.7868 39.9788 17.7141C39.7107 17.4081 39.4411 17.1031 39.1701 16.7991C38.8975 16.4962 38.6249 16.1932 38.3492 15.8917C38.283 15.819 38.2167 15.7463 38.149 15.6736C38.0947 15.6125 38.0358 15.5558 37.9727 15.5039C37.9091 15.4507 37.836 15.4101 37.7574 15.3842C37.6668 15.359 37.5713 15.358 37.4803 15.3812C37.3763 15.4055 37.277 15.4433 37.1761 15.4751C37.0721 15.51 36.9697 15.5433 36.8658 15.5766C36.658 15.6448 36.4516 15.713 36.2438 15.7812C36.2413 15.7822 36.2386 15.7827 36.2359 15.7827C36.2332 15.7827 36.2305 15.7821 36.228 15.781C36.2255 15.78 36.2233 15.7784 36.2214 15.7765C36.2195 15.7746 36.218 15.7723 36.217 15.7698L36.2167 15.769C36.2155 15.7662 36.215 15.7631 36.2151 15.76C36.2153 15.7569 36.2161 15.7538 36.2175 15.7511C36.2189 15.7483 36.221 15.7459 36.2234 15.7441C36.2259 15.7422 36.2287 15.7409 36.2318 15.7402C36.283 15.7236 36.3357 15.7069 36.3884 15.6902C36.5977 15.6206 36.8055 15.5524 37.0149 15.4842C37.1188 15.4494 37.2227 15.4161 37.3267 15.3827C37.423 15.3459 37.5248 15.3254 37.6279 15.3221C37.7961 15.3343 37.9539 15.4088 38.0706 15.5312C38.1354 15.5918 38.1941 15.6554 38.2529 15.7206C38.3221 15.7963 38.3914 15.872 38.4607 15.9478C38.7393 16.2538 39.0159 16.5608 39.2905 16.8688C39.5661 17.1779 39.8392 17.4874 40.1098 17.7975C40.1294 17.8202 40.149 17.8429 40.1685 17.8656C40.3207 18.0383 40.4698 18.2125 40.6204 18.3867Z" fill="white"/>
<path d="M37.9492 15.7831C37.8923 15.7094 37.8165 15.6527 37.7299 15.6191L37.6443 15.6222C38.3165 16.6743 39.1971 17.5757 40.2311 18.27C39.4705 17.441 38.7099 16.6121 37.9492 15.7831Z" fill="white"/>
<path d="M51.9771 26.7168L48.5653 8.34148C48.5069 8.03857 48.348 7.7646 48.1145 7.56448C47.881 7.36437 47.5869 7.24998 47.2803 7.24009C47.2527 7.23947 47.2251 7.23947 47.1975 7.24009L44.8733 7.32395L44.6232 7.3332L43.4632 7.37513L43.2131 7.38377L42.4669 7.4109L27.4218 7.9542C27.3991 7.95543 27.3758 7.95543 27.3532 7.95481L23.9818 7.8839L22.7342 7.858L22.6943 7.85738L21.7735 7.83765L13.7494 7.66991L11.622 7.62489L10.573 7.60331L10.3217 7.59775L9.12552 7.57308L8.87477 7.56753L7.65105 7.54225L7.40029 7.5367L6.0558 7.50833L5.8449 7.50402L4.6457 7.47873L4.45626 7.47503H4.42867C4.11031 7.47634 3.80266 7.59082 3.5601 7.79823C3.31754 8.00565 3.1557 8.29265 3.10318 8.6085L0.0175209 27.6764C-0.0138138 27.8695 -0.00302563 28.0672 0.0491356 28.2558C0.101297 28.4443 0.193582 28.6192 0.319604 28.7683C0.445627 28.9174 0.60237 29.0372 0.778976 29.1193C0.955582 29.2015 1.14783 29.244 1.3424 29.244H19.063C19.3238 29.2447 19.5777 29.3289 19.7877 29.4845L20.1237 29.7349C20.3552 29.9063 20.635 29.9992 20.9225 30C24.345 29.0914 27.9433 29.0914 31.3658 30C31.5423 30.0005 31.7171 29.9657 31.8801 29.8978C32.0431 29.8298 32.1911 29.73 32.3155 29.6041C32.5282 29.3902 32.8121 29.263 33.1125 29.2471L50.7277 28.3134C50.9187 28.3034 51.1054 28.2524 51.2752 28.1639C51.445 28.0753 51.5941 27.9513 51.7124 27.8002C51.8307 27.649 51.9155 27.4741 51.9612 27.2873C52.0069 27.1004 52.0123 26.9059 51.9771 26.7168Z" fill="#CCCCCC"/>
<path d="M47.1497 23.8513C47.1271 24.474 46.8596 25.0622 46.406 25.4865C45.9524 25.9109 45.3499 26.1367 44.7308 26.1144C43.7079 26.078 42.4873 26.0598 41.1624 26.0877C36.836 26.1807 31.4005 26.7796 28.1309 28.9336C27.72 29.205 27.2344 29.339 26.7433 29.3165C26.7072 29.3144 26.6721 29.3123 26.636 29.309C26.1269 29.2622 25.6472 29.0484 25.2707 28.7005C23.4695 27.0427 19.3387 25.0353 9.88298 24.8941C9.84364 24.8941 9.80536 24.8919 9.76708 24.8898C9.46082 24.8704 9.16136 24.7905 8.88582 24.6546C8.61028 24.5188 8.36406 24.3296 8.16123 24.098C7.95841 23.8664 7.80295 23.5968 7.70375 23.3047C7.60456 23.0126 7.56356 22.7037 7.58311 22.3957L8.51242 7.56042L8.65171 5.33689L8.89626 1.44706C8.92092 1.05532 9.09292 0.687724 9.37731 0.418947C9.6617 0.15017 10.0372 0.000376451 10.4274 0H10.4369L16.0702 0.0331548C18.4434 0.141176 20.4091 0.445275 21.9671 0.945453C22.4993 1.11146 23.0171 1.32107 23.5152 1.57219C24.1956 1.90399 24.8069 2.36316 25.3164 2.92513C25.6338 3.28413 26.0667 3.51927 26.5392 3.5893C26.6125 3.60031 26.6863 3.6071 26.7604 3.60962C27.1961 3.62776 27.6261 3.50398 27.9863 3.25668C31.6663 0.776474 39.1656 0.588239 43.3071 0.695191C43.8863 0.708778 44.4397 0.938744 44.8595 1.34029C45.2794 1.74184 45.5356 2.28622 45.5782 2.86738L45.7462 5.08021L45.9132 7.28662L46.8765 20.0385L47.1444 23.5861C47.151 23.6743 47.1528 23.7629 47.1497 23.8513Z" fill="#F2F2F2"/>
<path d="M11.2845 5.22032C14.6792 4.13088 18.4665 4.4193 21.6825 5.9541C22.6001 6.38974 23.4668 6.92665 24.2664 7.55491C24.4927 7.7335 24.8146 7.41406 24.5859 7.23356C21.6321 4.929 17.9206 3.83423 14.1972 4.1692C13.1671 4.26192 12.1501 4.46743 11.1644 4.78209C10.8884 4.87064 11.0064 5.30957 11.2845 5.22032Z" fill="#3F3D56"/>
<path d="M29.9644 7.73124C33.1206 6.06255 36.9001 5.69867 40.3317 6.64588C41.3101 6.91528 42.2555 7.29341 43.1507 7.77328C43.4071 7.91092 43.6356 7.51875 43.3787 7.38087C40.1081 5.62544 36.182 5.22134 32.6105 6.19989C31.6141 6.47335 30.6504 6.85525 29.7363 7.33881C29.4789 7.47495 29.707 7.86733 29.9644 7.73124Z" fill="#3F3D56"/>
<path d="M29.9644 10.7609C33.1206 9.09221 36.9001 8.72833 40.3317 9.67555C41.3101 9.94494 42.2555 10.3231 43.1507 10.8029C43.4071 10.9406 43.6356 10.5484 43.3787 10.4105C40.1081 8.6551 36.182 8.251 32.6105 9.22955C31.6141 9.50302 30.6504 9.88492 29.7363 10.3685C29.4789 10.5046 29.707 10.897 29.9644 10.7609Z" fill="#3F3D56"/>
<path d="M43.4894 13.6282C43.4918 13.5892 43.4824 13.5504 43.4626 13.5168C43.4427 13.4832 43.4133 13.4564 43.3781 13.4398C40.758 12.0598 37.7873 11.5001 34.8483 11.8327C34.8298 11.8342 34.8129 11.8372 34.793 11.8386H34.7922C34.7741 11.8403 34.7562 11.843 34.7384 11.8468C32.9903 12.0491 31.2946 12.5749 29.7366 13.3976C29.7026 13.4179 29.6745 13.4468 29.655 13.4814C29.6354 13.516 29.6252 13.5551 29.6252 13.5948V19.2468C29.6258 19.2815 29.6342 19.3157 29.6499 19.3468C29.6655 19.3778 29.6879 19.4048 29.7155 19.4258C29.7431 19.4468 29.775 19.4613 29.8089 19.468C29.8429 19.4748 29.8779 19.4737 29.9113 19.4648C29.9806 19.4448 30.0499 19.4255 30.1207 19.407C31.6957 18.9781 33.3127 18.7237 34.9426 18.6483C34.9773 18.6468 35.012 18.6453 35.0481 18.6438C36.3757 18.5865 37.7057 18.6346 39.0258 18.7877C39.0535 18.7893 39.081 18.7922 39.1084 18.7966C39.1762 18.804 39.2455 18.8122 39.3134 18.8211C39.3406 18.824 39.3664 18.827 39.3915 18.8314C39.6555 18.8648 39.9172 18.9026 40.1797 18.9434C40.5586 19.0042 40.9376 19.072 41.3166 19.1466C41.3402 19.1511 41.3645 19.157 41.3888 19.1615C41.9971 19.2831 42.6024 19.424 43.2048 19.5797C43.2384 19.5885 43.2734 19.5894 43.3074 19.5825C43.3413 19.5756 43.3733 19.561 43.4008 19.5399C43.4284 19.5187 43.4508 19.4916 43.4664 19.4605C43.482 19.4293 43.4904 19.3951 43.4909 19.3602V13.6371C43.4911 13.634 43.4906 13.631 43.4894 13.6282Z" fill="#3F3D56"/>
<path d="M35.2024 12.1409C35.0368 12.0593 34.8471 12.0426 34.67 12.0939C34.5918 12.1234 34.5201 12.1682 34.4593 12.2258C34.3984 12.2834 34.3495 12.3525 34.3154 12.4293C34.254 12.5764 34.2147 12.7319 34.1987 12.8907C34.1893 12.9531 34.1888 13.0319 34.2512 13.0611C34.2738 13.0694 34.2983 13.0712 34.3219 13.0665C34.3455 13.0618 34.3675 13.0507 34.3853 13.0344C34.4175 13.0024 34.4441 12.9652 34.4638 12.9242C34.5721 12.7546 34.7212 12.6153 34.8973 12.519C35.0734 12.4227 35.2707 12.3726 35.4711 12.3733L35.6379 12.4402C35.5067 12.3213 35.3602 12.2206 35.2024 12.1409Z" fill="#FF6582"/>
<path d="M37.0079 13.4435C36.8784 13.2518 36.725 13.0472 36.4848 12.9846C36.2066 12.9121 35.9209 13.0561 35.6785 13.1982C34.9577 13.6204 34.2597 14.0809 33.5874 14.5776L33.5881 14.5851L35.1485 14.4887C35.5243 14.4655 35.913 14.4391 36.2451 14.28C36.3644 14.2047 36.4977 14.1548 36.6368 14.1333C36.7231 14.138 36.8076 14.1598 36.8855 14.1975C36.9634 14.2353 37.033 14.2882 37.0905 14.3531C37.8096 15.0387 38.0177 16.0872 38.8245 16.6896C38.3111 15.558 37.7034 14.472 37.0079 13.4435Z" fill="white"/>
<path d="M35.0483 18.6438C35.0122 18.6453 34.9775 18.6468 34.9429 18.6483C34.6914 18.5574 34.4338 18.4771 34.1733 18.4074C34.0046 18.362 33.8329 18.3211 33.6612 18.2863C33.4669 18.2439 33.2712 18.2105 33.0754 18.1817C32.7026 18.1272 32.327 18.0953 31.9504 18.0863C31.9475 18.0866 31.9446 18.0863 31.9419 18.0854C31.9392 18.0846 31.9367 18.0831 31.9345 18.0812C31.9324 18.0792 31.9307 18.0769 31.9295 18.0742C31.9283 18.0716 31.9277 18.0687 31.9277 18.0659C31.9277 18.063 31.9283 18.0601 31.9295 18.0575C31.9307 18.0548 31.9324 18.0525 31.9345 18.0506C31.9367 18.0486 31.9392 18.0472 31.9419 18.0463C31.9446 18.0454 31.9475 18.0451 31.9504 18.0454C31.9985 18.0454 32.0468 18.0469 32.0934 18.05C32.4708 18.064 32.847 18.1009 33.22 18.1605C33.4142 18.1924 33.6085 18.2302 33.8013 18.2726C33.976 18.312 34.1507 18.356 34.3224 18.4044C34.5679 18.4741 34.8098 18.5539 35.0483 18.6438Z" fill="white"/>
<path d="M39.3918 18.8315C39.3662 18.827 39.3406 18.8239 39.3135 18.8209C39.2096 18.7346 39.1042 18.6528 38.9942 18.5725C38.8572 18.4725 38.7156 18.3786 38.571 18.2907C38.2508 18.0952 37.9166 17.9241 37.571 17.7787C37.0247 17.5498 36.4592 17.3704 35.8812 17.2424C35.222 17.0971 34.5546 16.9919 33.8827 16.9273C33.211 16.8576 32.5363 16.8152 31.8616 16.7728C31.833 16.7713 31.8315 16.7289 31.8616 16.7304C31.946 16.7364 32.0303 16.741 32.1161 16.747C32.7984 16.7895 33.4806 16.838 34.1583 16.9152C34.8303 16.9877 35.4969 17.104 36.1538 17.2636C36.7146 17.4026 37.262 17.5917 37.7894 17.8287C38.0927 17.9658 38.3865 18.1232 38.6689 18.2998C38.8481 18.4134 39.0213 18.5346 39.187 18.6634C39.2563 18.7179 39.3255 18.7724 39.3918 18.8315Z" fill="white"/>
<path d="M39.1088 18.7968C39.0813 18.7923 39.0537 18.7893 39.0259 18.7877C38.9943 18.7619 38.9611 18.7377 38.928 18.7135C38.6962 18.5465 38.4542 18.3942 38.2036 18.2575C37.976 18.1331 37.7423 18.0203 37.5033 17.9197C36.9572 17.6902 36.3917 17.5107 35.8135 17.3834C35.1542 17.2381 34.4869 17.1329 33.815 17.0683C33.1433 16.9986 32.4686 16.9562 31.7939 16.9138C31.7653 16.9108 31.7653 16.8699 31.7939 16.8714C31.8798 16.8774 31.9641 16.882 32.0484 16.888C32.7307 16.9304 33.4129 16.9789 34.0906 17.0562C34.7626 17.1286 35.4292 17.245 36.0861 17.4046C36.647 17.5434 37.1944 17.7325 37.7217 17.9697C37.9205 18.0606 38.1147 18.159 38.3045 18.2666C38.5859 18.422 38.8548 18.5993 39.1088 18.7968Z" fill="white"/>
<path d="M41.3888 19.1618C41.3647 19.1572 41.3406 19.1512 41.3165 19.1466C41.2894 19.1178 41.2638 19.0875 41.2382 19.0572C41.1087 18.9073 40.9807 18.7558 40.8541 18.6028C40.3557 18.0059 39.8827 17.3909 39.437 16.7637C39.0544 16.2274 38.6915 15.6806 38.3481 15.1231C38.1839 14.8595 38.0258 14.5929 37.8707 14.3232C37.7502 14.1142 37.6327 13.9046 37.5183 13.6946C37.4851 13.634 37.4535 13.5734 37.4219 13.5128C37.3481 13.3704 37.2743 13.2265 37.196 13.0856C37.1108 12.913 36.9859 12.7634 36.8315 12.6493C36.7544 12.5973 36.6651 12.5665 36.5725 12.5599C36.4419 12.5604 36.3135 12.5937 36.199 12.6569C35.3564 13.0516 34.5615 13.542 33.83 14.1187C33.1155 14.6777 32.4694 15.32 31.9053 16.032C31.8872 16.0532 31.848 16.0335 31.8646 16.0108C31.9324 15.926 32.0016 15.8411 32.0709 15.7578C32.6131 15.1127 33.2236 14.5291 33.8917 14.0172C33.8932 14.0157 33.8962 14.0142 33.8977 14.0127C33.9565 13.9657 34.0152 13.9203 34.0754 13.8764C34.4484 13.6001 34.8366 13.3452 35.2381 13.1129C35.4429 12.9932 35.6523 12.8796 35.8661 12.772C35.9188 12.7448 35.9731 12.7175 36.0273 12.6917C36.0815 12.6645 36.1357 12.6387 36.1899 12.6129C36.2972 12.5579 36.4146 12.5254 36.5348 12.5175C36.9535 12.5115 37.1688 12.9356 37.3179 13.2219C37.3646 13.3113 37.4128 13.4007 37.4595 13.4901C37.6403 13.8279 37.8285 14.1642 38.0243 14.4959C38.1432 14.702 38.2668 14.9065 38.3918 15.1095C38.571 15.3988 38.7547 15.6851 38.946 15.9699C38.946 15.9701 38.946 15.9703 38.9461 15.9705C38.9461 15.9707 38.9463 15.9709 38.9464 15.971C38.9465 15.9711 38.9467 15.9712 38.9469 15.9713C38.947 15.9714 38.9472 15.9714 38.9474 15.9714C39.1688 16.3077 39.3993 16.638 39.6373 16.9667C40.0454 17.5287 40.4731 18.0781 40.9204 18.6149C41.074 18.7997 41.2302 18.982 41.3888 19.1618Z" fill="white"/>
<path d="M36.0157 12.4714L35.974 12.4897C35.8786 12.3276 35.7448 12.1918 35.5846 12.0942C35.4244 11.9967 35.2427 11.9404 35.0557 11.9305C34.4392 11.8865 33.8975 12.2998 33.8483 12.8518C33.8283 13.0791 33.8937 13.3057 34.0316 13.4869L33.993 13.5099C33.8493 13.3212 33.7812 13.0852 33.802 12.8485C33.8533 12.2736 34.4173 11.8432 35.0594 11.8891C35.2542 11.8994 35.4434 11.958 35.6102 12.0596C35.777 12.1611 35.9163 12.3026 36.0157 12.4714Z" fill="#FF6582"/>
<path d="M32.9688 13.5882C32.807 13.5174 32.6308 13.4863 32.4547 13.4976C32.2786 13.5089 32.1076 13.5622 31.9561 13.653C32.5095 13.7384 33.058 13.8531 33.5995 13.9964C33.3753 13.8788 33.1999 13.6945 32.9688 13.5882Z" fill="white"/>
<path d="M31.953 13.6526L31.8921 13.6969C31.9127 13.6814 31.9341 13.6669 31.9561 13.6531L31.953 13.6526Z" fill="white"/>
<path d="M33.7884 13.9098C33.7641 13.8855 33.7399 13.8613 33.7155 13.837C33.528 13.6318 33.3023 13.4657 33.0511 13.348C32.9232 13.2939 32.786 13.2654 32.6472 13.2642C32.5039 13.2676 32.3621 13.2953 32.2279 13.3461C32.1648 13.3687 32.1031 13.3943 32.0423 13.4216C31.9728 13.4529 31.9046 13.4863 31.8366 13.5199C31.7091 13.5831 31.5833 13.6491 31.4591 13.7178C31.212 13.8545 30.9726 14.0017 30.741 14.1593C30.6209 14.241 30.5033 14.3254 30.3882 14.4125C30.2812 14.4934 30.1763 14.5765 30.0735 14.6617C30.0515 14.6799 30.0187 14.6505 30.0407 14.6324C30.0678 14.6098 30.0952 14.5873 30.1226 14.5652C30.1999 14.5026 30.2785 14.4411 30.3584 14.3809C30.504 14.2709 30.6533 14.1652 30.8065 14.0637C31.0446 13.9058 31.2909 13.7585 31.5454 13.622C31.6726 13.5539 31.8016 13.4886 31.9323 13.4262C31.9717 13.4073 32.0116 13.3889 32.052 13.3714C32.1442 13.3298 32.2394 13.2952 32.3367 13.2677C32.4763 13.2274 32.6223 13.2146 32.7667 13.2299C32.905 13.2476 33.0392 13.2892 33.1634 13.3527C33.4097 13.4916 33.6318 13.6697 33.8212 13.8803C33.841 13.9002 33.8083 13.9297 33.7884 13.9098Z" fill="white"/>
<path d="M11.2845 8.25011C14.6792 7.16067 18.4665 7.44909 21.6825 8.98388C22.6001 9.41953 23.4668 9.95643 24.2664 10.5847C24.4927 10.7633 24.8146 10.4438 24.5859 10.2633C21.6321 7.95879 17.9206 6.86401 14.1972 7.19899C13.1671 7.29171 12.1501 7.49722 11.1644 7.81187C10.8884 7.90043 11.0064 8.33936 11.2845 8.25011Z" fill="#3F3D56"/>
<path d="M11.2845 11.2798C14.6792 10.1903 18.4665 10.4788 21.6825 12.0135C22.6001 12.4492 23.4668 12.9861 24.2664 13.6144C24.4927 13.7929 24.8146 13.4735 24.5859 13.293C21.6321 10.9884 17.9206 9.89368 14.1972 10.2287C13.1671 10.3214 12.1501 10.5269 11.1644 10.8415C10.8884 10.9301 11.0064 11.369 11.2845 11.2798Z" fill="#3F3D56"/>
<path d="M11.2845 14.3096C14.6792 13.2201 18.4665 13.5085 21.6825 15.0433C22.6001 15.479 23.4668 16.0159 24.2664 16.6441C24.4927 16.8227 24.8146 16.5033 24.5859 16.3228C21.6321 14.0182 17.9206 12.9235 14.1972 13.2584C13.1671 13.3512 12.1501 13.5567 11.1644 13.8713C10.8884 13.9599 11.0064 14.3988 11.2845 14.3096Z" fill="#3F3D56"/>
<path d="M11.2845 17.3393C14.6792 16.2499 18.4665 16.5383 21.6825 18.0731C22.6001 18.5088 23.4668 19.0457 24.2664 19.6739C24.4927 19.8525 24.8146 19.5331 24.5859 19.3526C21.6321 17.048 17.9206 15.9532 14.1972 16.2882C13.1671 16.3809 12.1501 16.5865 11.1644 16.9011C10.8884 16.9897 11.0064 17.4286 11.2845 17.3393Z" fill="#3F3D56"/>
<path d="M11.2845 20.369C14.6792 19.2796 18.4665 19.568 21.6825 21.1028C22.6001 21.5384 23.4668 22.0753 24.2664 22.7036C24.4927 22.8822 24.8146 22.5627 24.5859 22.3822C21.6321 20.0777 17.9206 18.9829 14.1972 19.3179C13.1671 19.4106 12.1501 19.6161 11.1644 19.9308C10.8884 20.0193 11.0064 20.4583 11.2845 20.369Z" fill="#3F3D56"/>
<path d="M23.5152 1.57217V8.8374C23.5152 8.98179 23.2642 9.10264 22.9261 9.13579C22.9232 9.13562 22.9204 9.13598 22.9176 9.13686C22.8613 9.14114 22.8017 9.14435 22.7411 9.14435C22.5547 9.14779 22.3692 9.11736 22.1935 9.05451C22.1776 9.0481 22.1616 9.04061 22.1457 9.03419C22.1308 9.02564 22.1148 9.01815 22.1 9.00959C22.016 8.95932 21.967 8.9005 21.967 8.8374V0.945435C22.4992 1.11144 23.017 1.32105 23.5152 1.57217Z" fill="#6C63FF"/>
<path d="M26.76 3.25732H26.5388V29.1647H26.76V3.25732Z" fill="#E6E6E6"/>
</svg>
